<svg xmlns="http://www.w3.org/2000/svg" viewBox="0 0 512 512" fill="currentColor">
  <path d="M256 0C114.6 0 0 114.6 0 256s114.6 256 256 256s256-114.6 256-256S397.4 0 256 0zM256 464c-114.7 0-208-93.31-208-208S141.3 48 256 48s208 93.31 208 208S370.7 464 256 464zM296 336h-16V248C280 239.2 272.8 232 264 232h-48C207.2 232 200 239.2 200 248S207.2 264 216 264h16v72h-16C207.2 336 200 343.2 200 352S207.2 368 216 368h80c8.836 0 16-7.164 16-16S304.8 336 296 336zM256 192c17.67 0 32-14.33 32-32c0-17.67-14.33-32-32-32S224 142.3 224 160C224 177.7 238.3 192 256 192z"/>
</svg> 