<?xml version="1.0" encoding="UTF-8"?>
<svg xmlns="http://www.w3.org/2000/svg" viewBox="0 0 512 512" fill="#4F46E5">
  <rect x="32" y="96" width="448" height="320" rx="24" ry="24" fill="#ffffff" stroke="#4F46E5" stroke-width="16"/>
  <circle cx="128" cy="256" r="48" fill="none" stroke="#4F46E5" stroke-width="12" stroke-dasharray="15 10" opacity="0.7"/>
  <circle cx="128" cy="256" r="24" fill="#4F46E5" opacity="0.9"/>
  <path d="M192 192h192" stroke="#4F46E5" stroke-width="16" stroke-linecap="round"/>
  <path d="M192 256h160" stroke="#4F46E5" stroke-width="16" stroke-linecap="round"/>
  <path d="M192 320h128" stroke="#4F46E5" stroke-width="16" stroke-linecap="round"/>
  <path d="M400 160c0-8.8-7.2-16-16-16h-32c-8.8 0-16 7.2-16 16v32c0 8.8 7.2 16 16 16h32c8.8 0 16-7.2 16-16v-32z" fill="#FFD700" opacity="0.7"/>
  <path d="M400 288c0-8.8-7.2-16-16-16h-32c-8.8 0-16 7.2-16 16v32c0 8.8 7.2 16 16 16h32c8.8 0 16-7.2 16-16v-32z" fill="#FFD700" opacity="0.7"/>
</svg> 