<svg xmlns="http://www.w3.org/2000/svg" viewBox="0 0 512 512" fill="#4F46E5">
  <path d="M256 0C114.6 0 0 114.6 0 256s114.6 256 256 256s256-114.6 256-256S397.4 0 256 0zM256 464c-114.7 0-208-93.31-208-208S141.3 48 256 48s208 93.31 208 208S370.7 464 256 464zM352 192h-32V160c0-35.35-28.65-64-64-64S192 124.7 192 160v32H160c-8.836 0-16 7.162-16 16v128c0 8.836 7.164 16 16 16h192c8.836 0 16-7.164 16-16V208C368 199.2 360.8 192 352 192zM224 160c0-17.67 14.33-32 32-32s32 14.33 32 32v32H224V160zM336 336H176V224h160V336z"/>
  <path d="M256 272c-8.836 0-16 7.164-16 16v32c0 8.836 7.164 16 16 16s16-7.164 16-16v-32C272 279.2 264.8 272 256 272z"/>
  <g>
    <path d="M128 256c0-17.67 14.33-32 32-32s32 14.33 32 32-14.33 32-32 32S128 273.7 128 256z" opacity="0.4"/>
    <path d="M320 256c0-17.67 14.33-32 32-32s32 14.33 32 32-14.33 32-32 32S320 273.7 320 256z" opacity="0.4"/>
    <path d="M256 128c-17.67 0-32-14.33-32-32s14.33-32 32-32s32 14.33 32 32S273.7 128 256 128z" opacity="0.4"/>
    <path d="M256 384c-17.67 0-32-14.33-32-32s14.33-32 32-32s32 14.33 32 32S273.7 384 256 384z" opacity="0.4"/>
  </g>
  <g>
    <circle cx="256" cy="256" r="64" fill="none" stroke="#4F46E5" stroke-width="16" stroke-dasharray="20 10" opacity="0.7">
      <animateTransform attributeName="transform" type="rotate" from="0 256 256" to="360 256 256" dur="3s" repeatCount="indefinite"/>
    </circle>
    <circle cx="256" cy="256" r="96" fill="none" stroke="#4F46E5" stroke-width="8" stroke-dasharray="30 15" opacity="0.5">
      <animateTransform attributeName="transform" type="rotate" from="360 256 256" to="0 256 256" dur="5s" repeatCount="indefinite"/>
    </circle>
  </g>
</svg> 