<svg xmlns="http://www.w3.org/2000/svg" viewBox="0 0 512 512" fill="#4F46E5">
  <!-- Base circle -->
  <circle cx="256" cy="256" r="240" fill="#1E293B" stroke="#4F46E5" stroke-width="8" />
  
  <!-- NFC waves - simple, clean arcs -->
  <path d="M256 96c-88.4 0-160 71.6-160 160s71.6 160 160 160 160-71.6 160-160" fill="none" stroke="#4F46E5" stroke-width="12" stroke-linecap="round" opacity="0.8">
    <animateTransform attributeName="transform" type="rotate" from="0 256 256" to="360 256 256" dur="10s" repeatCount="indefinite"/>
  </path>
  
  <path d="M256 136c-66.3 0-120 53.7-120 120s53.7 120 120 120 120-53.7 120-120" fill="none" stroke="#4F46E5" stroke-width="10" stroke-linecap="round" opacity="0.6">
    <animateTransform attributeName="transform" type="rotate" from="0 256 256" to="360 256 256" dur="8s" repeatCount="indefinite"/>
  </path>
  
  <!-- NFC card in center with more card-like proportions -->
  <rect x="176" y="206" width="160" height="100" rx="10" ry="10" fill="#4F46E5" opacity="0.9" />
  
  <!-- Card chip -->
  <rect x="196" y="226" width="40" height="30" rx="2" ry="2" fill="#1E293B" stroke="#6366F1" stroke-width="2" />
  
  <!-- Card details - magnetic stripe -->
  <rect x="196" y="276" width="120" height="15" rx="1" ry="1" fill="#1E293B" opacity="0.7" />
  
  <!-- Card text/number details -->
  <rect x="246" y="226" width="70" height="8" rx="2" ry="2" fill="#1E293B" />
  <rect x="246" y="241" width="50" height="8" rx="2" ry="2" fill="#1E293B" />
  
  <!-- Pulse effect around card -->
  <rect x="166" y="196" width="180" height="120" rx="12" ry="12" fill="none" stroke="#4F46E5" stroke-width="2" opacity="0">
    <animate attributeName="opacity" values="0;0.8;0" dur="2s" repeatCount="indefinite" />
    <animate attributeName="x" values="176;156" dur="2s" repeatCount="indefinite" />
    <animate attributeName="y" values="206;186" dur="2s" repeatCount="indefinite" />
    <animate attributeName="width" values="160;200" dur="2s" repeatCount="indefinite" />
    <animate attributeName="height" values="100;140" dur="2s" repeatCount="indefinite" />
  </rect>
</svg> 