<?xml version="1.0" encoding="UTF-8"?>
<svg xmlns="http://www.w3.org/2000/svg" viewBox="0 0 512 512">
  <circle cx="256" cy="256" r="240" fill="#ffffff" stroke="#000000" stroke-width="16"/>
  <path d="M256 16c-132.5 0-240 107.5-240 240s107.5 240 240 240 240-107.5 240-240S388.5 16 256 16zm0 448c-114.9 0-208-93.1-208-208S141.1 48 256 48s208 93.1 208 208-93.1 208-208 208z" fill="#000000"/>
  <path d="M256 128c-70.7 0-128 57.3-128 128s57.3 128 128 128 128-57.3 128-128-57.3-128-128-128zm0 224c-53 0-96-43-96-96s43-96 96-96 96 43 96 96-43 96-96 96z" fill="#000000"/>
  <rect x="16" y="240" width="480" height="32" fill="#000000"/>
  <circle cx="256" cy="256" r="64" fill="#ffffff" stroke="#000000" stroke-width="16"/>
  <circle cx="256" cy="256" r="32" fill="#ff0000"/>
  <circle cx="256" cy="256" r="16" fill="#ffffff"/>
</svg> 